:FULLY-SPECIFIED
:FORCE-ALL-JOINTS-BE-3DOF
:DEGREES
918
root -0.210839 14.1234 -36.3288 372.354 -26.8094 343.513
lfemur -64.546 31.4686 -0.497815
ltibia 69.7871 0 0
lfoot -6.94856 -9.84552 0
ltoes -9.74968 0 0
rfemur 6.21867 -8.41172 13.4187
rtibia 38.4731 0 0
rfoot -22.3484 -29.0736 0
rtoes -27.518 0 0
lowerback 11.3791 -0.0648876 6.76935
upperback -1.5787 1.27233 5.64538
thorax -8.10325 0.430497 1.98574
lowerneck -3.78709 7.7917 2.58086
upperneck 4.10607 10.2964 -0.845255
head 2.11931 5.15052 -0.376735
lclavicle -3.72172e-015 4.72666e-015 0
lhumerus 10.6794 5.27419 71.3674
lradius 15.757 0 0
lwrist -38.7356 0 0
lhand -27.7041 28.6357 0
lfingers 7.12502 0 0
lthumb -1.09998 58.5963 0
rclavicle -3.72172e-015 4.72666e-015 0
rhumerus -76.8289 21.3757 -96.3068
rradius 110.066 0 0
rwrist -67.8448 0 0
rhand -10.8904 -24.6012 0
rfingers 7.12502 0 0
rthumb 15.1261 -54.0282 0
919
root -0.202179 14.1141 -36.3216 372.314 -26.8021 343.467
lfemur -64.6152 31.5489 -0.518174
ltibia 69.956 0 0
lfoot -6.99797 -9.94426 0
ltoes -9.45265 0 0
rfemur 6.2774 -8.40363 13.4088
rtibia 38.5207 0 0
rfoot -22.3578 -29.074 0
rtoes -27.5402 0 0
lowerback 11.3547 -0.0784488 6.79147
upperback -1.5588 1.25656 5.70443
thorax -8.06926 0.423862 2.03929
lowerneck -3.80368 7.7967 2.63041
upperneck 4.17931 10.3017 -0.875434
head 2.15129 5.15316 -0.391025
lclavicle -5.47393e-015 3.08145e-015 0
lhumerus 10.4964 4.46558 71.6705
lradius 15.8484 0 0
lwrist -37.7811 0 0
lhand -27.3544 28.5193 0
lfingers 7.12502 0 0
lthumb -0.762267 58.4833 0
rclavicle -5.47393e-015 3.08145e-015 0
rhumerus -76.8272 21.3613 -96.2533
rradius 110.023 0 0
rwrist -67.8094 0 0
rhand -10.8581 -24.6315 0
rfingers 7.12502 0 0
rthumb 15.1572 -54.0562 0
920
root -0.193519 14.1048 -36.3145 372.277 -26.7966 343.421
lfemur -64.6859 31.6284 -0.540405
ltibia 70.1256 0 0
lfoot -7.04551 -10.0386 0
ltoes -9.15712 0 0
rfemur 6.3345 -8.39813 13.3951
rtibia 38.5658 0 0
rfoot -22.3691 -29.0688 0
rtoes -27.5691 0 0
lowerback 11.3302 -0.0922034 6.81378
upperback -1.53972 1.24058 5.76357
thorax -8.03614 0.41708 2.09288
lowerneck -3.81944 7.80198 2.67847
upperneck 4.2527 10.3076 -0.905243
head 2.1831 5.15604 -0.40499
lclavicle -7.11639e-015 1.41951e-015 0
lhumerus 10.3213 3.55974 71.9709
lradius 15.9989 0 0
lwrist -36.761 0 0
lhand -27.0176 28.4193 0
lfingers 7.12502 0 0
lthumb -0.43699 58.3864 0
rclavicle -7.11639e-015 1.41951e-015 0
rhumerus -76.8253 21.3487 -96.2018
rradius 109.984 0 0
rwrist -67.7743 0 0
rhand -10.8291 -24.66 0
rfingers 7.12502 0 0
rthumb 15.1851 -54.0826 0
921
root -0.184859 14.0955 -36.3074 372.243 -26.7922 343.376
lfemur -64.7599 31.7073 -0.56565
ltibia 70.2961 0 0
lfoot -7.09117 -10.1282 0
ltoes -8.86514 0 0
rfemur 6.39029 -8.39607 13.3773
rtibia 38.6065 0 0
rfoot -22.3823 -29.0573 0
rtoes -27.6065 0 0
lowerback 11.3057 -0.106322 6.83658
upperback -1.52172 1.22422 5.82274
thorax -8.00416 0.410047 2.14633
lowerneck -3.83404 7.80754 2.72469
upperneck 4.32564 10.314 -0.934517
head 2.21448 5.15915 -0.418555
lclavicle -8.60746e-015 -2.42569e-016 0
lhumerus 10.1574 2.54997 72.2677
lradius 16.214 0 0
lwrist -35.6747 0 0
lhand -26.6967 28.3382 0
lfingers 7.12502 0 0
lthumb -0.127063 58.3081 0
rclavicle -8.60746e-015 -2.42569e-016 0
rhumerus -76.8234 21.338 -96.1528
rradius 109.949 0 0
rwrist -67.7397 0 0
rhand -10.8039 -24.6864 0
rfingers 7.12502 0 0
rthumb 15.2094 -54.1073 0
922
root -0.176198 14.0862 -36.3003 372.214 -26.7882 343.333
lfemur -64.8389 31.7856 -0.595051
ltibia 70.4681 0 0
lfoot -7.13498 -10.2126 0
ltoes -8.57881 0 0
rfemur 6.44505 -8.39827 13.3549
rtibia 38.6411 0 0
rfoot -22.3971 -29.0392 0
rtoes -27.654 0 0
lowerback 11.2813 -0.120974 6.86021
upperback -1.50504 1.20733 5.88192
thorax -7.97357 0.402662 2.19944
lowerneck -3.84712 7.81339 2.76872
upperneck 4.39752 10.3209 -0.963093
head 2.24512 5.16252 -0.431644
lclavicle -9.90552e-015 -1.88816e-015 0
lhumerus 10.008 1.42955 72.5598
lradius 16.4989 0 0
lwrist -34.5213 0 0
lhand -26.3947 28.2784 0
lfingers 7.12502 0 0
lthumb 0.164599 58.2508 0
rclavicle -9.90552e-015 -1.88816e-015 0
rhumerus -76.8216 21.3292 -96.1069
rradius 109.919 0 0
rwrist -67.7056 0 0
rhand -10.7828 -24.7106 0
rfingers 7.12502 0 0
rthumb 15.2297 -54.13 0
923
root -0.167538 14.0768 -36.2931 372.189 -26.7838 343.29
lfemur -64.9245 31.8635 -0.62975
ltibia 70.6417 0 0
lfoot -7.17695 -10.2914 0
ltoes -8.30019 0 0
rfemur 6.49911 -8.40556 13.3278
rtibia 38.6677 0 0
rfoot -22.4135 -29.0139 0
rtoes -27.7132 0 0
lowerback 11.2568 -0.136331 6.88497
upperback -1.48996 1.18974 5.94105
thorax -7.94466 0.394819 2.25205
lowerneck -3.85835 7.81954 2.81019
upperneck 4.46773 10.3283 -0.990806
head 2.27476 5.16616 -0.444182
lclavicle -1.09689e-014 -3.50065e-015 0
lhumerus 9.8765 0.191787 72.8462
lradius 16.8592 0 0
lwrist -33.3001 0 0
lhand -26.1146 28.2423 0
lfingers 7.12502 0 0
lthumb 0.435083 58.217 0
rclavicle -1.09689e-014 -3.50065e-015 0
rhumerus -76.82 21.3222 -96.0646
rradius 109.895 0 0
rwrist -67.6722 0 0
rhand -10.7665 -24.7324 0
rfingers 7.12502 0 0
rthumb 15.2454 -54.1506 0
924
root -0.158878 14.0675 -36.286 372.171 -26.7782 343.247
lfemur -65.0186 31.9412 -0.670889
ltibia 70.8173 0 0
lfoot -7.21709 -10.3641 0
ltoes -8.03136 0 0
rfemur 6.55275 -8.4188 13.2954
rtibia 38.6845 0 0
rfoot -22.4311 -28.9807 0
rtoes -27.7857 0 0
lowerback 11.2323 -0.152564 6.91117
upperback -1.47671 1.17128 6.0001
thorax -7.91769 0.386415 2.30397
lowerneck -3.86739 7.82599 2.84875
upperneck 4.53568 10.3364 -1.01749
head 2.3031 5.17008 -0.456091
lclavicle -1.17561e-014 -5.06343e-015 0
lhumerus 9.76615 -1.17003 73.126
lradius 17.3004 0 0
lwrist -32.0105 0 0
lhand -25.8595 28.2325 0
lfingers 7.12502 0 0
lthumb 0.681475 58.2089 0
rclavicle -1.17561e-014 -5.06343e-015 0
rhumerus -76.819 21.3171 -96.0265
rradius 109.878 0 0
rwrist -67.6395 0 0
rhand -10.7554 -24.7515 0
rfingers 7.12502 0 0
rthumb 15.2561 -54.1689 0
925
root -0.150218 14.0582 -36.2789 372.159 -26.7707 343.206
lfemur -65.1227 32.0189 -0.71961
ltibia 70.9954 0 0
lfoot -7.25541 -10.4304 0
ltoes -7.77438 0 0
rfemur 6.60628 -8.4388 13.2575
rtibia 38.6896 0 0
rfoot -22.4499 -28.9393 0
rtoes -27.8734 0 0
lowerback 11.2078 -0.169842 6.93913
upperback -1.46556 1.1518 6.05903
thorax -7.89293 0.377348 2.35501
lowerneck -3.87389 7.83276 2.88405
upperneck 4.60076 10.3451 -1.04299
head 2.32985 5.1743 -0.467298
lclavicle -1.22253e-014 -6.55989e-015 0
lhumerus 9.68028 -2.6626 73.398
lradius 17.8277 0 0
lwrist -30.6517 0 0
lhand -25.6323 28.2512 0
lfingers 7.12502 0 0
lthumb 0.90086 58.229 0
rclavicle -1.22253e-014 -6.55989e-015 0
rhumerus -76.8186 21.3138 -95.993
rradius 109.868 0 0
rwrist -67.6076 0 0
rhand -10.7499 -24.7678 0
rfingers 7.12502 0 0
rthumb 15.2614 -54.1848 0
926
root -0.140495 14.0506 -36.267 372.153 -26.7648 343.166
lfemur -65.2332 32.0964 -0.773924
ltibia 71.1761 0 0
lfoot -7.28945 -10.4904 0
ltoes -7.51641 0 0
rfemur 6.65789 -8.465 13.2126
rtibia 38.6882 0 0
rfoot -22.4728 -28.8869 0
rtoes -27.9769 0 0
lowerback 11.1826 -0.187518 6.96886
upperback -1.456 1.13203 6.11847
thorax -7.86948 0.368013 2.40569
lowerneck -3.87834 7.83983 2.91659
upperneck 4.66595 10.3544 -1.06788
head 2.35616 5.17881 -0.477969
lclavicle -1.24827e-014 -8.1659e-015 0
lhumerus 9.54754 -4.35146 73.7211
lradius 18.4421 0 0
lwrist -29.1596 0 0
lhand -25.4224 28.3008 0
lfingers 7.12502 0 0
lthumb 1.10356 58.2795 0
rclavicle -1.24827e-014 -8.1659e-015 0
rhumerus -76.8181 21.3136 -95.9637
rradius 109.864 0 0
rwrist -67.5792 0 0
rhand -10.752 -24.7795 0
rfingers 7.12502 0 0
rthumb 15.2593 -54.1967 0
927
root -0.130772 14.043 -36.255 372.15 -26.764 343.127
lfemur -65.3449 32.1736 -0.830869
ltibia 71.3593 0 0
lfoot -7.31722 -10.5449 0
ltoes -7.24466 0 0
rfemur 6.70575 -8.49595 13.1601
rtibia 38.6867 0 0
rfoot -22.5022 -28.822 0
rtoes -28.0948 0 0
lowerback 11.1562 -0.204868 6.99999
upperback -1.4473 1.11278 6.179
thorax -7.84629 0.35885 2.45665
lowerneck -3.88153 7.84717 2.9472
upperneck 4.73436 10.3643 -1.09284
head 2.38327 5.18358 -0.488328
lclavicle -1.2663e-014 -1.00421e-014 0
lhumerus 9.30687 -6.28099 74.1435
lradius 19.1379 0 0
lwrist -27.484 0 0
lhand -25.2176 28.38 0
lfingers 7.12502 0 0
lthumb 1.30131 58.3592 0
rclavicle -1.2663e-014 -1.00421e-014 0
rhumerus -76.8167 21.3177 -95.9376
rradius 109.864 0 0
rwrist -67.5561 0 0
rhand -10.7628 -24.7854 0
rfingers 7.12502 0 0
rthumb 15.249 -54.2033 0
928
root -0.121048 14.0354 -36.2431 372.15 -26.7681 343.089
lfemur -65.4577 32.2503 -0.890128
ltibia 71.5445 0 0
lfoot -7.33945 -10.594 0
ltoes -6.96135 0 0
rfemur 6.75018 -8.53114 13.1005
rtibia 38.6849 0 0
rfoot -22.5375 -28.7459 0
rtoes -28.2256 0 0
lowerback 11.1288 -0.221952 7.03226
upperback -1.43942 1.09393 6.24045
thorax -7.82341 0.349825 2.50788
lowerneck -3.88358 7.8548 2.97603
upperneck 4.80558 10.3748 -1.11781
head 2.41106 5.1886 -0.498386
lclavicle -1.27678e-014 -1.2149e-014 0
lhumerus 8.97702 -8.42616 74.6485
lradius 19.9102 0 0
lwrist -25.6445 0 0
lhand -25.0188 28.4862 0
lfingers 7.12502 0 0
lthumb 1.49337 58.4654 0
rclavicle -1.27678e-014 -1.2149e-014 0
rhumerus -76.8144 21.3256 -95.9143
rradius 109.867 0 0
rwrist -67.5375 0 0
rhand -10.7812 -24.7862 0
rfingers 7.12502 0 0
rthumb 15.2312 -54.2055 0
929
root -0.111325 14.0278 -36.2311 372.154 -26.7766 343.053
lfemur -65.5713 32.3265 -0.951384
ltibia 71.7315 0 0
lfoot -7.35686 -10.6382 0
ltoes -6.66866 0 0
rfemur 6.79148 -8.57008 13.0347
rtibia 38.6827 0 0
rfoot -22.5779 -28.6599 0
rtoes -28.3677 0 0
lowerback 11.1005 -0.238826 7.06542
upperback -1.43232 1.0754 6.30267
thorax -7.80091 0.340901 2.55937
lowerneck -3.88463 7.86271 3.0032
upperneck 4.87921 10.3858 -1.14275
head 2.43944 5.19388 -0.508153
lclavicle -1.27984e-014 -1.44472e-014 0
lhumerus 8.57674 -10.762 75.219
lradius 20.7547 0 0
lwrist -23.661 0 0
lhand -24.8266 28.6169 0
lfingers 7.12502 0 0
lthumb 1.67895 58.5958 0
rclavicle -1.27984e-014 -1.44472e-014 0
rhumerus -76.8114 21.337 -95.8936
rradius 109.875 0 0
rwrist -67.5226 0 0
rhand -10.8064 -24.7826 0
rfingers 7.12502 0 0
rthumb 15.207 -54.2037 0
930
root -0.101602 14.0202 -36.2192 372.16 -26.789 343.018
lfemur -65.6854 32.402 -1.01432
ltibia 71.9199 0 0
lfoot -7.37019 -10.6776 0
ltoes -6.3688 0 0
rfemur 6.82994 -8.61227 12.9633
rtibia 38.6801 0 0
rfoot -22.6226 -28.565 0
rtoes -28.5197 0 0
lowerback 11.0716 -0.255548 7.09922
upperback -1.42592 1.05711 6.36549
thorax -7.77884 0.332042 2.61111
lowerneck -3.88481 7.87089 3.02884
upperneck 4.95481 10.3974 -1.16762
head 2.46828 5.19939 -0.517641
lclavicle -1.27565e-014 -1.68972e-014 0
lhumerus 8.12479 -13.2634 75.8385
lradius 21.6666 0 0
lwrist -21.5532 0 0
lhand -24.6419 28.7694 0
lfingers 7.12502 0 0
lthumb 1.85731 58.7476 0
rclavicle -1.27565e-014 -1.68972e-014 0
rhumerus -76.8077 21.3514 -95.8753
rradius 109.886 0 0
rwrist -67.5105 0 0
rhand -10.8373 -24.7753 0
rfingers 7.12502 0 0
rthumb 15.1772 -54.1987 0
931
root -0.0918789 14.0126 -36.2073 372.169 -26.8048 342.984
lfemur -65.7999 32.4767 -1.07862
ltibia 72.1093 0 0
lfoot -7.38017 -10.7125 0
ltoes -6.06396 0 0
rfemur 6.86588 -8.65722 12.887
rtibia 38.677 0 0
rfoot -22.671 -28.4626 0
rtoes -28.6798 0 0
lowerback 11.0423 -0.272177 7.1334
upperback -1.4202 1.03895 6.42875
thorax -7.75726 0.323212 2.6631
lowerneck -3.88424 7.87934 3.05308
upperneck 5.032 10.4094 -1.19237
head 2.49747 5.20513 -0.526859
lclavicle -1.26435e-014 -1.94595e-014 0
lhumerus 7.63992 -15.9053 76.4899
lradius 22.6414 0 0
lwrist -19.3411 0 0
lhand -24.4655 28.9411 0
lfingers 7.12502 0 0
lthumb 2.02767 58.9184 0
rclavicle -1.26435e-014 -1.94595e-014 0
rhumerus -76.8034 21.3685 -95.8589
rradius 109.9 0 0
rwrist -67.5003 0 0
rhand -10.8729 -24.765 0
rfingers 7.12502 0 0
rthumb 15.1429 -54.1909 0
